<?xml version="1.0" encoding="utf-8"?>
<!-- Generator: Adobe Illustrator 22.1.0, SVG Export Plug-In . SVG Version: 6.00 Build 0)  -->
<svg version="1.1" id="Layer_1" xmlns="http://www.w3.org/2000/svg" xmlns:xlink="http://www.w3.org/1999/xlink" x="0px" y="0px"
	 viewBox="0 0 888 878" style="enable-background:new 0 0 888 878;" xml:space="preserve">
<style type="text/css">
	.st0{fill:#3467BF;}
	.st1{fill:none;stroke:#716F82;stroke-width:7;stroke-miterlimit:10;}
	.st2{fill:#072050;}
	.st3{fill:#747282;}
	.st4{fill:#2D2D3A;}
	.st5{fill:#FFFFFF;}
	.st6{fill:#A29FB0;}
	.st7{fill:#6E89C4;}
	.st8{fill:#EA5444;}
	.st9{fill:#FFC543;}
	.st10{fill:#A2CC3B;}
	.st11{fill:#313D6E;}
	.st12{fill:#678C6E;}
	.st13{opacity:0.55;fill:#C5CBED;}
	.st14{fill:#7C4B39;}
	.st15{fill:#FCBBA4;}
	.st16{fill:#FFC7B0;}
	.st17{fill:#081344;}
	.st18{opacity:0.2;fill:#081344;}
	.st19{fill:#716F82;}
	.st20{fill:#B1AEC1;}
	.st21{fill:#585668;}
	.st22{fill:#DDDDDD;}
	.st23{fill:#767684;}
	.st24{fill:#1F3468;}
	.st25{fill:#ABA9C4;}
	.st26{fill:#4A4960;}
	.st27{fill:#E79271;}
	.st28{fill:#A5483C;}
	.st29{fill:#84352F;}
	.st30{fill:#7F3954;}
	.st31{fill:#6E3856;}
	.st32{fill:#DF7D54;}
	.st33{fill:none;stroke:#081344;stroke-width:1.4933;stroke-linecap:round;stroke-miterlimit:10;}
	.st34{fill:#1C1C2D;}
	.st35{fill:#A0523A;}
	.st36{fill:#25253A;}
	.st37{fill:#9F293B;}
	.st38{fill:#F14747;}
	.st39{opacity:0.32;fill:#25253A;}
	.st40{fill:#ECEEF0;}
	.st41{opacity:0.55;fill:#CDD6F9;}
	.st42{fill:#FC4F42;}
	.st43{opacity:0.79;fill:#CE2D29;}
	.st44{fill:#6075B0;}
	.st45{fill:#794061;}
	.st46{fill:#072859;}
	.st47{fill:#F3885E;}
	.st48{fill:#FFBE62;}
	.st49{fill:#FBAF3D;}
	.st50{fill:#FFD72E;}
	.st51{fill:#F38154;}
	.st52{fill:#709B2C;}
	.st53{fill:#4C842F;}
	.st54{fill:none;stroke:#081344;stroke-width:4.5943;stroke-miterlimit:10;}
	.st55{fill:#517F38;}
	.st56{fill:#3B6837;}
	.st57{fill:#65B15B;}
	.st58{fill:#62324A;}
	.st59{fill:url(#SVGID_1_);}
	.st60{fill:url(#SVGID_2_);}
	.st61{opacity:0.7;}
	.st62{opacity:0;fill:#FFFFFF;}
	.st63{opacity:2.692308e-02;fill:#FFFFFF;}
	.st64{opacity:5.384615e-02;fill:#FFFFFF;}
	.st65{opacity:8.076923e-02;fill:#FFFFFF;}
	.st66{opacity:0.1077;fill:#FFFFFF;}
	.st67{opacity:0.1346;fill:#FFFFFF;}
	.st68{opacity:0.1615;fill:#FFFFFF;}
	.st69{opacity:0.1885;fill:#FFFFFF;}
	.st70{opacity:0.2154;fill:#FFFFFF;}
	.st71{opacity:0.2423;fill:#FFFFFF;}
	.st72{opacity:0.2692;fill:#FFFFFF;}
	.st73{opacity:0.2962;fill:#FFFFFF;}
	.st74{opacity:0.3231;fill:#FFFFFF;}
	.st75{opacity:0.35;fill:#FFFFFF;}
	.st76{opacity:0.3769;fill:#FFFFFF;}
	.st77{opacity:0.4038;fill:#FFFFFF;}
	.st78{opacity:0.4308;fill:#FFFFFF;}
	.st79{opacity:0.4577;fill:#FFFFFF;}
	.st80{opacity:0.4846;fill:#FFFFFF;}
	.st81{opacity:0.5115;fill:#FFFFFF;}
	.st82{opacity:0.5385;fill:#FFFFFF;}
	.st83{opacity:0.5654;fill:#FFFFFF;}
	.st84{opacity:0.5923;fill:#FFFFFF;}
	.st85{opacity:0.6192;fill:#FFFFFF;}
	.st86{opacity:0.6462;fill:#FFFFFF;}
	.st87{opacity:0.6731;fill:#FFFFFF;}
	.st88{opacity:0.7;fill:#FFFFFF;}
</style>
<circle class="st0" cx="448.3" cy="439" r="413.7"/>
<line class="st1" x1="26.2" y1="643.9" x2="820.6" y2="643.9"/>
<g>
	
		<rect x="141.2" y="233.4" transform="matrix(-1 -1.224647e-16 1.224647e-16 -1 349.7583 611.5601)" class="st2" width="67.3" height="144.9"/>
	<g>
		<path class="st3" d="M66.4,327.4h216V187.8c0-4.8-3.9-8.7-8.7-8.7H75.1c-4.8,0-8.7,3.9-8.7,8.7V327.4z"/>
		<path class="st3" d="M80.2,349h192.5c6.5,0,11.7-5.2,11.7-11.7v-14.1H68.5v14.1C68.5,343.8,73.7,349,80.2,349z"/>
		<path class="st4" d="M289.9,187.9v139.4l-53-0.8l-55.5-0.9l-17.5-0.3l-56.1-0.9L74,323.9v-136c0-4.9,4-8.8,8.8-8.8h198.3
			C286,179.1,289.9,183.1,289.9,187.9z"/>
		<path class="st5" d="M82,191.9v123c0,0.5,0.4,0.8,0.8,0.8H281c0.5,0,0.8-0.4,0.8-0.8v-123c0-0.5-0.4-0.8-0.8-0.8H82.8
			C82.4,191.1,82,191.4,82,191.9z"/>
		<path class="st6" d="M85.7,349h192.5c6.5,0,11.7-5.2,11.7-11.7v-14.1H74v14.1C74,343.8,79.2,349,85.7,349z"/>
	</g>
	<path class="st6" d="M139.5,378.8h90.3c2.8,0,5-2.2,5-5l0,0c0-2.8-2.2-5-5-5h-90.3c-2.8,0-5,2.2-5,5l0,0
		C134.5,376.5,136.7,378.8,139.5,378.8z"/>
	<g>
		<path class="st7" d="M272.4,212.7H94.8c-1.5,0-2.6-1.2-2.6-2.6v-10.5c0-1.5,1.2-2.6,2.6-2.6h177.6c1.5,0,2.6,1.2,2.6,2.6v10.5
			C275,211.5,273.9,212.7,272.4,212.7z"/>
		<g>
			<g>
				<path class="st8" d="M106,204.6c0,1.9-1.5,3.4-3.3,3.4s-3.3-1.5-3.3-3.4c0-1.9,1.5-3.4,3.3-3.4S106,202.7,106,204.6z"/>
			</g>
		</g>
		<g>
			<g>
				<ellipse class="st9" cx="114.9" cy="204.6" rx="3.3" ry="3.4"/>
			</g>
		</g>
		<g>
			<g>
				<ellipse class="st10" cx="127.1" cy="204.6" rx="3.3" ry="3.4"/>
			</g>
		</g>
		<path class="st11" d="M152.7,240.3H93.3c-0.9,0-1.6-0.7-1.6-1.6v-18.2c0-0.9,0.7-1.6,1.6-1.6h59.4c0.9,0,1.6,0.7,1.6,1.6v18.2
			C154.3,239.6,153.5,240.3,152.7,240.3z"/>
		<path class="st12" d="M225.5,267.2h-59.4c-0.9,0-1.6-0.7-1.6-1.6v-18.2c0-0.9,0.7-1.6,1.6-1.6h59.4c0.9,0,1.6,0.7,1.6,1.6v18.2
			C227.1,266.5,226.4,267.2,225.5,267.2z"/>
		<path class="st12" d="M273.5,240.3h-35.9c-0.9,0-1.6-0.7-1.6-1.6v-18.2c0-0.9,0.7-1.6,1.6-1.6h35.9c0.9,0,1.6,0.7,1.6,1.6v18.2
			C275,239.6,274.3,240.3,273.5,240.3z"/>
		<path class="st8" d="M273.5,267.6h-35.9c-0.9,0-1.6-0.7-1.6-1.6v-18.2c0-0.9,0.7-1.6,1.6-1.6h35.9c0.9,0,1.6,0.7,1.6,1.6V266
			C275,266.9,274.3,267.6,273.5,267.6z"/>
		<g>
			<rect x="165" y="236" class="st2" width="62.6" height="1.5"/>
			<rect x="165" y="230.6" class="st2" width="62.6" height="1.5"/>
			<rect x="165" y="225.1" class="st2" width="62.6" height="1.5"/>
			<rect x="165" y="219.7" class="st2" width="62.6" height="1.5"/>
		</g>
		<path class="st8" d="M152.7,293.7H93.3c-0.9,0-1.6-0.7-1.6-1.6V274c0-0.9,0.7-1.6,1.6-1.6h59.4c0.9,0,1.6,0.7,1.6,1.6v18.2
			C154.3,293,153.5,293.7,152.7,293.7z"/>
		<g>
			<rect x="165" y="289.5" class="st2" width="62.6" height="1.5"/>
			<rect x="165" y="284" class="st2" width="62.6" height="1.5"/>
			<rect x="165" y="278.6" class="st2" width="62.6" height="1.5"/>
			<rect x="165" y="273.1" class="st2" width="62.6" height="1.5"/>
		</g>
		<g>
			<rect x="91.5" y="262.1" class="st2" width="62.6" height="1.5"/>
			<rect x="91.5" y="256.7" class="st2" width="62.6" height="1.5"/>
			<rect x="91.5" y="251.2" class="st2" width="62.6" height="1.5"/>
			<rect x="91.5" y="245.8" class="st2" width="62.6" height="1.5"/>
		</g>
	</g>
	<polygon class="st13" points="248.4,179.1 181.5,323.4 107.9,323.4 174.3,179.1 	"/>
</g>
<g>
	<path class="st14" d="M296.8,107.3l13.8,8.6c10,6.2,13.6,19,8.2,29.5c-1.1,2.1-1.7,3.4-1.6,3.3c0.5-0.6-21.2-41.2-21.2-41.2"/>
	<path class="st15" d="M265.7,239.5h-16.9c-3.9,0-7-3.2-7-7v-43.4c0-3.9,3.2-7,7-7h16.9c3.9,0,7,3.2,7,7v43.4
		C272.8,236.3,269.6,239.5,265.7,239.5z"/>
	<path class="st14" d="M317.1,148.6c0.3,2.7-12.4,7.3-12.5,10.1l2.1,5.7c-15.6-5.6-1.8,3-1.8,3c-4.6,13.7-3,21.3-16.2,26.6
		c-6.6,2.6-13.8,3.8-21.3,3.3c-10.1-0.7-19.1,2.5-26.4-1c-1.5-0.7-2.9-1.7-4.3-3c-2.6-2.6-4.9-5.4-6.8-8.5c-0.7-1.2-1.5-2.4-2.1-3.7
		c-4-7.7-12.1-30.3-11.5-39.6c1.8-26.2,26.9-43.7,55.8-41.7c0.7,0.1,1.5,0.1,2.2,0.1c15.6,1.1,28.9,9.4,37.1,21.4
		c0.4,0.6,0.9,1.3,1.3,2c0,0,0,0,0,0c2.3,3.8,3.6,20.1,3.6,20.1C316.5,145.1,316.9,146.8,317.1,148.6z"/>
	<path class="st16" d="M315.9,157l-0.4,7.2l-0.6,11.9l-1,4.2c-0.1,1.9-1,11.7-1.4,13.5c-3.3,16.9-14.4,20.4-31.5,22.6
		c-0.5,0.1-1,0.1-1.6,0.1c-1.8,0.2-3.7,0.2-5.6,0.1c-1.8-0.1-3.6-0.3-5.4-0.7c-3.4-0.6-6.7-1.7-9.8-3.2c0,0,0,0,0,0
		c-7.6-3.6-13.8-9.4-17.9-16.6c-3.1-5.4-4.9-11.6-5.1-18.2c0-0.4,0-0.9,0-1.4c0-0.5,0-1.1,0-1.6v-0.3l0-1.3l0.2-3.4l0.6-11.7l0-0.1
		v0l0.1-2.2l0.1-1.7l0.1-1.6l0-0.4c0.2-2.7,0.7-5.3,1.5-7.8c0.5-1.8,1.2-3.5,1.9-5.1c0.1-0.3,0.2-0.5,0.3-0.7
		c0.6-1.3,1.3-2.7,2.1-3.9c0,0,0,0,0,0c2.9-4.8,6.8-9,11.4-12.2c0.9-0.7,1.9-1.3,2.8-1.9c6.7-3.9,14.6-6,22.9-5.6
		c6.9,0.4,12,2.4,17.6,5.8c3.4,2,6.4,4.5,9,7.4c3.7,4.1,6.2,8.8,8,14.1c0.1,0.3,0.2,0.6,0.3,0.9c0.5,1.7,0.9,3.5,1.1,5.3
		C316,151.3,316.1,154.2,315.9,157z"/>
	<path class="st14" d="M301.4,121.4c8.4,23.2-13.8,21.3-14.8,32c-0.1,1.2-0.5,3-0.9,11.7l-1.7,5.5c-0.5,1.7-2.1,2.9-3.8,2.9
		c-2.2,0-4-1.8-4-4v-0.1l0.2-8.7l-4.3,11.5c-3.1,8.3-7.8,15.8-13.8,22.1c-5,5.2-10.8,9.7-17.2,13c0,0-27.1-16.1-27.1-52.9
		c0-2.9,0.2-6,0.5-9.1c0.3-2.9,0.8-5.5,1.5-8c11.2-45.7,67.3-30.1,72.7-28.1C294.3,111.2,301.4,121.4,301.4,121.4z"/>
	<path class="st16" d="M320.7,181.6c0,0.1,0,0.6,0,0.6c-0.1,2.5-2.2,4.5-7.6,4.4l0.8-19.6C318.2,173.6,320.3,177.5,320.7,181.6z"/>
	<path class="st14" d="M317.8,157.9h-12c-1.4,0-2.5-1.1-2.5-2.5l0,0c0-1.4,1.1-2.5,2.5-2.5h12c1.4,0,2.5,1.1,2.5,2.5v0
		C320.3,156.7,319.1,157.9,317.8,157.9z"/>
	<path class="st17" d="M311,166.9L311,166.9c-1,0-1.8-0.8-1.8-1.8v-2.7c0-1,0.8-1.8,1.8-1.8l0,0c1,0,1.8,0.8,1.8,1.8v2.7
		C312.8,166.1,312,166.9,311,166.9z"/>
	<path class="st18" d="M258.3,194.2c-5,5.2-10.8,9.7-17.2,13c0,0-27.1-16.1-27.1-52.9c0-2.9,0.2-6,0.5-9.1c0.3-2.9,0.8-5.5,1.5-8
		c1.2,7,4.3,17.6,12.4,30.7C240.6,187.8,253.9,192.9,258.3,194.2z"/>
	<path class="st14" d="M312.9,192.7l-0.4,13.7c0,11.7-13.9,16.4-24.1,15.3l-16.4-1.8l1.6-14.2l4.5-27.2l-7.2-20.3l14.9,6.2l0,0
		c-1.1,16.1,10.4,29.2,26.6,28.4L312.9,192.7z"/>
	<path class="st15" d="M275.2,157.7c1.7,0,3,1.4,3,3l-0.1,10.2l-0.1,8.9l-3.5,0c-0.3,0-0.5,0-0.8,0c-5.9-0.4-10.5-5.6-10.5-11.4
		c0-3,1.3-5.6,3.4-7.6c1.8-1.8,4.3-2.8,7.1-3l0,0c0.3,0,0.6-0.1,0.9,0L275.2,157.7z"/>
	<g>
		
			<rect x="169.9" y="456.4" transform="matrix(-1 -1.224647e-16 1.224647e-16 -1 434.1623 930.154)" class="st17" width="94.3" height="17.4"/>
		<line class="st11" x1="137.8" y1="618.6" x2="137.8" y2="625.3"/>
		
			<rect x="530.6" y="457.9" transform="matrix(-1 -1.224647e-16 1.224647e-16 -1 1147.5286 933.0919)" class="st19" width="86.4" height="17.4"/>
		<rect x="603.1" y="398.7" class="st19" width="19.7" height="244.9"/>
		<rect x="524.2" y="397.2" class="st20" width="19.7" height="246.4"/>
		<rect x="524.2" y="387.3" class="st19" width="19.7" height="105.1"/>
		
			<rect x="59.3" y="457.9" transform="matrix(-1 -1.224647e-16 1.224647e-16 -1 205.0356 933.0919)" class="st19" width="86.4" height="17.4"/>
		<rect x="131.8" y="398.7" class="st19" width="19.7" height="244.9"/>
		<rect x="52.9" y="397.2" class="st19" width="19.7" height="246.4"/>
		<g>
			<rect x="416.5" y="234.2" class="st21" width="64.9" height="139.5"/>
			<g>
				<g>
					<path class="st22" d="M550.3,327.9H337.1V197.5c0-4.6,3.7-8.4,8.4-8.4h196.5c4.6,0,8.4,3.7,8.4,8.4V327.9z"/>
					<path class="st22" d="M536.9,348.7H346.4c-6.2,0-11.3-5.1-11.3-11.3v-13.5h213.1v13.5C548.2,343.7,543.2,348.7,536.9,348.7z"/>
					<path class="st23" d="M543,197.7v130.2H329.8V197.7c0-4.7,3.8-8.5,8.5-8.5h196.2C539.1,189.2,543,193,543,197.7z"/>
					<path class="st24" d="M535.2,197.4v118.5c0,0.4-0.4,0.8-0.8,0.8H338.3c-0.4,0-0.8-0.4-0.8-0.8V197.4c0-0.4,0.4-0.8,0.8-0.8
						h196.1C534.8,196.6,535.2,197,535.2,197.4z"/>
					<path class="st25" d="M542.9,323.9v6.9c0,7.2-4.2,13.4-10.4,16.3c-2.3,1.1-4.9,1.7-7.6,1.7H347.7c-9.9,0-18-8-18-18v-6.9H542.9
						z"/>
				</g>
				<g>
					<g>
						<rect x="349" y="211.2" class="st7" width="66.2" height="2.3"/>
						<rect x="443.9" y="211.2" class="st22" width="31.4" height="2.3"/>
						<rect x="489.2" y="211.2" class="st9" width="31.4" height="2.3"/>
						<rect x="478.1" y="211.2" class="st7" width="7.4" height="2.3"/>
						<rect x="418.3" y="211.2" class="st8" width="22" height="2.3"/>
					</g>
					<g>
						<rect x="349" y="269.9" class="st7" width="66.2" height="2.3"/>
						<rect x="443.9" y="269.9" class="st22" width="31.4" height="2.3"/>
						<rect x="489.2" y="269.9" class="st9" width="31.4" height="2.3"/>
						<rect x="478.1" y="269.9" class="st7" width="7.4" height="2.3"/>
						<rect x="418.3" y="269.9" class="st6" width="22" height="2.3"/>
					</g>
					<g>
						
							<rect x="454.3" y="250.4" transform="matrix(-1 -1.224647e-16 1.224647e-16 -1 974.8813 503.0263)" class="st7" width="66.2" height="2.3"/>
						
							<rect x="394.2" y="250.4" transform="matrix(-1 -1.224647e-16 1.224647e-16 -1 819.8516 503.0263)" class="st22" width="31.4" height="2.3"/>
						
							<rect x="349" y="250.4" transform="matrix(-1 -1.224647e-16 1.224647e-16 -1 729.2985 503.0263)" class="st9" width="31.4" height="2.3"/>
						
							<rect x="384" y="250.4" transform="matrix(-1 -1.224647e-16 1.224647e-16 -1 775.4908 503.0263)" class="st7" width="7.4" height="2.3"/>
						
							<rect x="429.2" y="250.4" transform="matrix(-1 -1.224647e-16 1.224647e-16 -1 880.4574 503.0263)" class="st6" width="22" height="2.3"/>
					</g>
					<g>
						<rect x="349" y="221" class="st8" width="24.8" height="2.3"/>
						<rect x="423.2" y="221" class="st7" width="10.7" height="2.3"/>
						<rect x="468.5" y="221" class="st22" width="52.1" height="2.3"/>
						<rect x="436.7" y="221" class="st7" width="28.1" height="2.3"/>
						<rect x="376.9" y="221" class="st7" width="42.7" height="2.3"/>
					</g>
					<g>
						<rect x="349" y="279.7" class="st7" width="24.8" height="2.3"/>
						<rect x="423.2" y="279.7" class="st7" width="10.7" height="2.3"/>
						<rect x="468.5" y="279.7" class="st7" width="52.1" height="2.3"/>
						<rect x="436.7" y="279.7" class="st7" width="28.1" height="2.3"/>
						<rect x="376.9" y="279.7" class="st7" width="42.7" height="2.3"/>
					</g>
					<g>
						<rect x="349" y="260.1" class="st8" width="24.8" height="2.3"/>
						<rect x="423.2" y="260.1" class="st7" width="10.7" height="2.3"/>
						<rect x="468.5" y="260.1" class="st22" width="52.1" height="2.3"/>
						<rect x="436.7" y="260.1" class="st7" width="28.1" height="2.3"/>
						<rect x="376.9" y="260.1" class="st7" width="42.7" height="2.3"/>
					</g>
					<g>
						<rect x="349" y="230.8" class="st22" width="24.8" height="2.3"/>
						<rect x="376.9" y="230.8" class="st7" width="42.7" height="2.3"/>
					</g>
					<g>
						
							<rect x="394.8" y="240.6" transform="matrix(-1 -1.224647e-16 1.224647e-16 -1 814.3439 483.462)" class="st22" width="24.8" height="2.3"/>
						
							<rect x="349" y="240.6" transform="matrix(-1 -1.224647e-16 1.224647e-16 -1 740.6177 483.462)" class="st7" width="42.7" height="2.3"/>
					</g>
				</g>
			</g>
			<path class="st26" d="M482.5,377.4h-92.2c-1.2,0-2.2-1-2.2-2.2v-5.3c0-1.2,1-2.2,2.2-2.2h92.2c1.2,0,2.2,1,2.2,2.2v5.3
				C484.7,376.4,483.7,377.4,482.5,377.4z"/>
		</g>
		<path class="st27" d="M639.5,398.5H365.4v-14.3c0-4.2,3.4-7.6,7.6-7.6h258.9c4.2,0,7.6,3.4,7.6,7.6V398.5z"/>
		<g>
			<path class="st28" d="M559.6,384.4v14.2H31.9v-14.2c0-4.3,3.5-7.8,7.8-7.8h512.2C556.1,376.6,559.6,380.1,559.6,384.4z"/>
			<path class="st29" d="M406.9,376.6c-4.2,6.8-9.2,15-13.4,21.9H264.4l1.8-21.9H406.9z"/>
		</g>
		<g>
			
				<rect x="666.9" y="473.7" transform="matrix(-1 -7.510710e-07 7.510710e-07 -1 1469.4757 1117.3235)" class="st30" width="135.6" height="169.9"/>
			
				<rect x="618.9" y="473.7" transform="matrix(-1 -7.642572e-07 7.642572e-07 -1 1371.0217 1117.324)" class="st31" width="133.3" height="169.9"/>
			<g>
				
					<rect x="617.4" y="486.4" transform="matrix(-1 -1.224647e-16 1.224647e-16 -1 1361.1357 1018.8105)" class="st32" width="126.4" height="46"/>
				
					<rect x="617.4" y="540.4" transform="matrix(-1 -1.224647e-16 1.224647e-16 -1 1361.1357 1126.7028)" class="st32" width="126.4" height="46"/>
				
					<rect x="617.4" y="594.3" transform="matrix(-1 -1.224647e-16 1.224647e-16 -1 1361.1357 1237.9396)" class="st32" width="126.4" height="49.3"/>
			</g>
			<g>
				<path class="st5" d="M657.6,511.9h31.6c1.4,0,2.5-1.1,2.5-2.5l0,0c0-1.4-1.1-2.5-2.5-2.5h-31.6c-1.4,0-2.5,1.1-2.5,2.5l0,0
					C655.1,510.8,656.2,511.9,657.6,511.9z"/>
				<path class="st5" d="M656.4,565.4H688c1.4,0,2.5-1.1,2.5-2.5l0,0c0-1.4-1.1-2.5-2.5-2.5h-31.6c-1.4,0-2.5,1.1-2.5,2.5l0,0
					C653.9,564.3,655,565.4,656.4,565.4z"/>
				<path class="st5" d="M656.4,619H688c1.4,0,2.5-1.1,2.5-2.5v0c0-1.4-1.1-2.5-2.5-2.5h-31.6c-1.4,0-2.5,1.1-2.5,2.5l0,0
					C653.9,617.9,655,619,656.4,619z"/>
			</g>
		</g>
		<g>
			<g>
				<path class="st30" d="M309.7,654l63.3,0.7c3.8,0,6.9-3,6.9-6.8l0,0c0-2.9-1.8-5.5-4.5-6.5l-31.2-11.3l-34.3,0.5L309.7,654z"/>
				<path class="st17" d="M374.3,656.5l-64.1-0.2l0-4.6l68.7,0.2l0,0C378.9,654.4,376.8,656.5,374.3,656.5z"/>
			</g>
			<g>
				<line class="st33" x1="343.4" y1="639.4" x2="350.8" y2="631.5"/>
				<line class="st33" x1="348.8" y1="641.7" x2="356.3" y2="633.8"/>
				<line class="st33" x1="354" y1="644.8" x2="362.4" y2="635.8"/>
			</g>
			<g>
				<path class="st34" d="M307.5,633.2c3.7-61.8,2.7-118.9-2.1-130.5c-4.9-7.2-43.4-22.8-81.9-24.4l18-39.3
					c50.4,2.5,86.5,21.5,99.1,43.1c5.3,9.1,9.9,27.5,7.5,90.6c-1.3,33-2.9,58.9-2.9,58.9L307.5,633.2z"/>
			</g>
			<g>
				<path class="st35" d="M366.1,655.6l63.3,0.4c3.8,0,6.9-3,6.9-6.8l0,0c0-2.9-1.8-5.5-4.5-6.5l-31.3-11.1l-34.3,0.6L366.1,655.6z"
					/>
				<path class="st17" d="M430.7,657.8l-65.1,0l0-4.6l69.7,0l0,0C435.3,655.7,433.2,657.8,430.7,657.8z"/>
			</g>
			<g>
				<line class="st33" x1="399.7" y1="640.9" x2="407.2" y2="632.9"/>
				<line class="st33" x1="405.2" y1="643.2" x2="412.6" y2="635.2"/>
				<line class="st33" x1="410.4" y1="646.2" x2="418.8" y2="637.2"/>
			</g>
			<g>
				<path class="st34" d="M363.8,633.2c3.7-61.8,2.7-118.9-2.1-130.5c-4.9-7.2-43.4-22.8-81.9-24.4l18-39.3
					c50.4,2.5,86.5,21.5,99.1,43.1c5.3,9.1,9.9,27.5,7.5,90.6c-1.3,33-2.9,58.9-2.9,58.9L363.8,633.2z"/>
			</g>
			<path class="st34" d="M309.6,450.3c0,6.9-2.5,13.3-6.6,18.2c-5.2,6.3-13.2,10.4-22.1,10.4h-48.1c-1.4,0-2.8-0.1-4.2-0.3
				c-3.5-0.5-6.8-1.7-9.8-3.4c-0.5-0.3-1-0.6-1.6-0.9c-7.8-5.1-13-13.9-13-24l0.9-15.3l103.6-0.9L309.6,450.3z"/>
			<g>
				<g>
					<g>
						<path class="st15" d="M342.6,368.8l24.8-4c1.8-0.3,3.1-2,2.8-3.8l0,0c-0.3-1.8-2-3.1-3.8-2.8l-24.8,4c-1.8,0.3-3.1,2-2.8,3.8
							l0,0C339.1,367.9,340.8,369.1,342.6,368.8z"/>
						<path class="st15" d="M350.5,375.5l19.9-3.2c1.8-0.3,3.1-2,2.8-3.8l0,0c-0.3-1.8-2-3.1-3.8-2.8l-19.9,3.2
							c-1.8,0.3-3.1,2-2.8,3.8l0,0C347,374.6,348.7,375.8,350.5,375.5z"/>
						<path class="st15" d="M345.9,384.2l23.6-3.8c1.8-0.3,3.1-2,2.8-3.8l0,0c-0.3-1.8-2-3.1-3.8-2.8l-23.6,3.8
							c-1.8,0.3-3.1,2-2.8,3.8l0,0C342.4,383.3,344.1,384.5,345.9,384.2z"/>
					</g>
					<path class="st15" d="M353.3,362.4c-0.3,0-3.3,0-6.6-0.1c-5.7-0.1-11.3,1.2-16.4,3.7l-9.8,4.8c0,0,5.6,16.6,6.4,16.8
						c18.8,3.4,25.3-5.1,25.3-5.1L353.3,362.4z"/>
				</g>
				<rect x="330.3" y="362.3" class="st5" width="8.4" height="27.2"/>
			</g>
			<g>
				<path class="st34" d="M275.5,392.5c-19.7,0-37.8-11.5-46-29.4l-0.4-0.9l-25.8-78.8l31.8-10.4l25.2,76.8c3,5.7,9,9.4,15.5,9.3
					l54.8-0.5l0.3,33.5l-54.8,0.5C275.9,392.5,275.7,392.5,275.5,392.5z"/>
			</g>
			<g>
				<g>
					<path class="st15" d="M454.5,360c-2.1-3.7-5.1-6.6-8.9-8.5c0,0-0.1,0-0.1,0c-5.1-2.5-10.7-3.7-16.4-3.6l-10.9,0.2
						c0,0-2.8,23.6-2.6,22.9c0.3-1.5,26.6-1.1,38.7-0.9c2.6,0.1,4.3-2.8,3-5L454.5,360z"/>
				</g>
				<rect x="411.6" y="346.2" class="st5" width="10.4" height="27.8"/>
			</g>
			<g>
				<path class="st36" d="M360.7,377.3c-19.7,0-37.8-11.5-46-29.4l-37.2-80.4l30.4-14l37.2,80.4c2.8,6.2,9,10.1,15.8,10l54.8-0.5
					l0.3,33.5l-54.8,0.5C361,377.3,360.9,377.3,360.7,377.3z"/>
			</g>
			<path class="st36" d="M318.4,283.1l-0.6,70.2l-0.8,89.4c0,0-1.9,2.2-7.7,5.2c-5,2.6-12.8,5.9-24.8,9c-13.9,3.6-33.5,4.2-50.3,3.8
				c-18.5-0.5-33.5-2.1-33.5-2.1l0.4-175.5c0-24.7,17.9-45.2,41.4-49.4c2.8-0.5,5.7-0.7,8.7-0.7h16.9
				C296,233,318.4,255.4,318.4,283.1z"/>
			<g>
				<g>
					<rect x="240.2" y="513.6" class="st20" width="16.9" height="97.1"/>
					<path class="st19" d="M240.2,519.1v21.3l16.9-6.2v-14.4C252.9,519.6,244.8,519.3,240.2,519.1z"/>
				</g>
				<path class="st4" d="M300.8,522H199.4c-5.2,0-9.4-4.2-9.4-9.4l0,0c0-5.2,4.2-9.4,9.4-9.4h101.3c5.2,0,9.4,4.2,9.4,9.4l0,0
					C310.2,517.8,306,522,300.8,522z"/>
				<g>
					<g>
						<path class="st4" d="M320.4,642.1h-10.6c0-11.9-10.3-21.6-22.9-21.6h-77.1c-12.6,0-22.9,9.7-22.9,21.6h-10.6
							c0-17.4,15-31.6,33.5-31.6h77.1C305.4,610.5,320.4,624.7,320.4,642.1z"/>
					</g>
					<rect x="236.2" y="595.5" class="st4" width="24.7" height="15.2"/>
				</g>
				<g>
					<ellipse class="st17" cx="181.1" cy="651.8" rx="8.8" ry="8.3"/>
					<path class="st2" d="M193.8,651h-24.1v-8c0-3,2.4-5.5,5.5-5.5h13.1c3,0,5.5,2.4,5.5,5.5V651z"/>
					<ellipse class="st17" cx="315.6" cy="651.8" rx="8.8" ry="8.3"/>
					<path class="st2" d="M328.3,651h-24.1v-8c0-3,2.4-5.5,5.5-5.5h13.1c3,0,5.5,2.4,5.5,5.5V651z"/>
				</g>
				<rect x="242.1" y="613.6" class="st4" width="14" height="29.9"/>
				<g>
					<ellipse class="st17" cx="249.4" cy="651.8" rx="8.8" ry="8.3"/>
					<path class="st2" d="M262.1,651H238v-8c0-3,2.4-5.5,5.5-5.5h13.1c3,0,5.5,2.4,5.5,5.5V651z"/>
				</g>
			</g>
			<path class="st37" d="M114,330.8l22.7,163.6c1.4,9.9,9.7,17.5,19.8,17.8l82.7,0.9l-46-205.7l-58.7,0
				C121.9,307.4,112.3,318.4,114,330.8z"/>
			<path class="st38" d="M346.5,513.1H212.1c-4.5,0-8.1-3.6-8.1-8.1v-19.4c0-4.5,3.6-8.1,8.1-8.1h134.4c4.5,0,8.1,3.6,8.1,8.1V505
				C354.6,509.5,350.9,513.1,346.5,513.1z"/>
			<path class="st34" d="M228.3,277.8c-2.2,32.2,4.1,148.6,6,182.9c-18.5-0.5-33.5-2.1-33.5-2.1l0.4-175.5
				c0-24.7,17.9-45.2,41.4-49.4C242.6,233.7,230.9,239.9,228.3,277.8z"/>
			<polygon class="st5" points="286,236 234.2,236 234.2,221.6 286,227.7 			"/>
			<path class="st38" d="M202.5,490.6l-24-167.8c-1.1-7.5,4.5-14.4,12.5-15.4l0,0c7.9-1,15.3,4.3,16.4,11.8l24,167.8
				c1.1,7.5-4.5,14.4-12.5,15.4l0,0C210.9,503.4,206.8,509,202.5,490.6z"/>
			<path class="st34" d="M317.8,353.4l-0.8,89.4c0,0-1.9,2.2-7.7,5.2l-11.9-134.8C297.5,313.2,308.4,340.5,317.8,353.4z"/>
		</g>
	</g>
	<path class="st39" d="M542.6,290.8l-5.9,33.1l-4.2,23.2c-2.3,1.1-4.9,1.7-7.6,1.7h-56c5.3-5.5,14.2-14.7,23.8-24.8
		c15-15.7,31.6-33.5,39-42.6L542.6,290.8z"/>
</g>
<g>
	<path class="st22" d="M511.8,376.3h110.9c0.6-0.9,1.1-1.9,1.4-3l24.8-89.6c1.2-4.3-2-8.5-6.4-8.5h-97.6c-3,0-5.6,2-6.4,4.9
		L511.8,376.3z"/>
	<path class="st6" d="M643.6,280.6l-24.8,89.5c-1.2,4.2-4.9,7-9.3,7h-104L533.3,277c0.8-2.9,3.4-4.9,6.4-4.9h97.5
		C641.6,272.1,644.8,276.4,643.6,280.6z"/>
	<path class="st24" d="M638.1,284.6l-20.3,73l-4.3,15.3H510.4l4.2-15.3l21.2-76.3c0.7-2.7,3.2-4.5,6-4.5h90.3
		C636.3,276.7,639.2,280.6,638.1,284.6z"/>
	<g>
		<g>
			<polygon class="st40" points="577.4,286.6 545.6,286.6 546.3,284.4 578.1,284.4 			"/>
			<polygon class="st8" points="606.2,286.6 591.1,286.6 591.8,284.4 606.9,284.4 			"/>
			<polygon class="st6" points="627.9,286.6 612.8,286.6 613.5,284.4 628.6,284.4 			"/>
			<polygon class="st7" points="611.1,286.6 607.5,286.6 608.2,284.4 611.8,284.4 			"/>
			<polygon class="st6" points="589.4,286.6 578.8,286.6 579.5,284.4 590.1,284.4 			"/>
		</g>
		<g>
			<polygon class="st22" points="555.2,324.8 570.3,324.8 571,322.5 555.9,322.5 			"/>
			<polygon class="st9" points="533.5,324.8 548.6,324.8 549.3,322.5 534.2,322.5 			"/>
			<polygon class="st7" points="550.3,324.8 553.9,324.8 554.6,322.5 551,322.5 			"/>
		</g>
		<g>
			<polygon class="st8" points="554.5,296.2 542.6,296.2 543.3,293.9 555.2,293.9 			"/>
			<polygon class="st7" points="583.3,296.2 578.2,296.2 578.9,293.9 584,293.9 			"/>
			<polygon class="st8" points="624.9,296.2 599.9,296.2 600.6,293.9 625.6,293.9 			"/>
			<polygon class="st7" points="598.1,296.2 584.6,296.2 585.3,293.9 598.8,293.9 			"/>
			<polygon class="st7" points="576.4,296.2 556,296.2 556.7,293.9 577.1,293.9 			"/>
		</g>
		<g>
			<polygon class="st11" points="536.4,353.3 524.5,353.3 525.2,351.1 537.1,351.1 			"/>
		</g>
		<g>
			<polygon class="st22" points="551.5,305.7 539.6,305.7 540.3,303.5 552.2,303.5 			"/>
			<polygon class="st22" points="570.9,305.7 559,305.7 559.7,303.5 571.6,303.5 			"/>
			<polygon class="st7" points="618.5,305.7 598.1,305.7 598.8,303.5 619.2,303.5 			"/>
		</g>
		<g>
			<polygon class="st7" points="536.5,315.2 557,315.2 557.7,313 537.2,313 			"/>
		</g>
	</g>
	<polygon class="st6" points="619.2,357.5 614.9,372.8 509.1,372.8 513.4,357.5 	"/>
	<g>
		<path class="st6" d="M562.3,377.4H435.5c-3,0-5.4-2.4-5.4-5.4l0,0c0-3,2.4-5.4,5.4-5.4h126.7c3,0,5.4,2.4,5.4,5.4l0,0
			C567.6,375,565.2,377.4,562.3,377.4z"/>
	</g>
	<polygon class="st41" points="612.1,272.1 610,276.7 573.1,357.5 569.3,365.8 529.4,365.8 533.3,357.5 570.1,276.7 572.2,272.1 	
		"/>
	<polygon class="st41" points="494.9,196.6 440,316.7 381.4,316.7 436.2,196.6 	"/>
	<g>
		<g>
			<path class="st22" d="M610.3,377.1H537c-3,0-5.4-2.4-5.4-5.4l0,0c0-3,2.4-5.4,5.4-5.4h73.4c3,0,5.4,2.4,5.4,5.4l0,0
				C615.7,374.6,613.3,377.1,610.3,377.1z"/>
		</g>
		<g>
			<rect x="573.5" y="369.8" class="st17" width="10.5" height="3.1"/>
			<rect x="562.7" y="369.8" class="st17" width="7.6" height="3.1"/>
		</g>
	</g>
</g>
<g>
	<g>
		<path class="st42" d="M507.1,333.4v43.9h-36.7v-43.9c0-1.9,1.6-3.5,3.5-3.5h29.6C505.5,329.9,507.1,331.5,507.1,333.4z"/>
		<g>
			<path class="st8" d="M470.9,369.8c-0.5-0.3-11.7-6.9-12.7-18.4c-0.4-4.4,1.3-7.1,2.7-8.6c4-4.2,10.7-3.9,11.5-3.9l-0.3,5.4
				c-1.4-0.1-5.4,0.2-7.3,2.3c-1,1-1.4,2.5-1.2,4.4c0.8,8.8,10,14.2,10.1,14.2L470.9,369.8z"/>
		</g>
	</g>
	<path class="st8" d="M490,377.3h-19.5v-43.9c0-1.9,1.6-3.5,3.5-3.5h1.2c0.1,2.3,0.7,19.8,5.6,32.4C485,373.3,488.8,376.5,490,377.3
		z"/>
	<path class="st43" d="M458.1,351.4c0.9,10.4,10.1,16.8,12.3,18.1v7.8H490c-1.2-0.8-5-4-9.2-15c-4.9-12.6-5.5-30.1-5.6-32.4h-1.2
		c-1.9,0-3.5,1.6-3.5,3.5v5.5c-2.5,0.2-6.7,0.9-9.5,3.9C459.4,344.3,457.8,347,458.1,351.4z M464.7,346.5c1.4-1.5,3.9-2,5.7-2.2
		v18.6c-2.8-2.4-6.5-6.5-6.9-11.9C463.3,349,463.7,347.5,464.7,346.5z"/>
</g>
<g>
	<g>
		
			<rect x="83.6" y="295" transform="matrix(0.9847 0.1743 -0.1743 0.9847 57.7875 -9.9772)" class="st44" width="4.2" height="58.2"/>
		
			<rect x="86.3" y="293.9" transform="matrix(0.9847 0.1743 -0.1743 0.9847 54.1084 -10.9869)" class="st44" width="6.5" height="17.5"/>
	</g>
	<g>
		<polygon class="st45" points="75.8,360.4 71.6,360.1 76.5,302.1 79,298.4 80.7,302.4 		"/>
	</g>
	<g>
		<polygon class="st46" points="70,363.4 65.8,364.2 54.7,307.1 56.1,302.8 58.8,306.3 		"/>
	</g>
	<g>
		<polygon class="st47" points="79.3,376.7 61.2,376.7 55.3,329 85.2,329 		"/>
		<polygon class="st48" points="86.1,376.7 68,376.7 65.4,329 92,329 		"/>
	</g>
</g>
<g>
	<g>
		<path class="st38" d="M642.5,448.6v26.3h91.7c5.7,0,10.6-3.6,12.4-8.7c0.5-1.4,0.8-2.9,0.8-4.4c0-3.6-1.5-6.9-3.8-9.3
			c-2.4-2.4-5.7-3.8-9.3-3.8H642.5z"/>
		<path class="st43" d="M663,466.1v8.7h71.2c5.7,0,10.6-3.6,12.4-8.7H663z"/>
		<path class="st37" d="M622.9,448.6l0,26.3l60.1,0c7.2,0,13.1-5.9,13.1-13.1c0-3.6-1.5-6.9-3.8-9.3c-2.4-2.4-5.7-3.8-9.3-3.8
			L622.9,448.6z"/>
		<path class="st5" d="M622.9,453.1l0,16.8l56.6,0c4.7,0,8.4-3.8,8.4-8.4c0-2.3-0.9-4.4-2.5-6c-1.5-1.5-3.6-2.5-6-2.5L622.9,453.1z"
			/>
	</g>
	<g>
		<path class="st49" d="M640.7,396.4v26.3l91.7,0c7.2,0,13.1-5.9,13.1-13.1c0-3.6-1.5-6.9-3.8-9.3c-2.4-2.4-5.7-3.8-9.3-3.8
			L640.7,396.4z"/>
		<path class="st50" d="M661.5,405.1v-8.7h71.2c5.7,0,10.6,3.6,12.4,8.7H661.5z"/>
		<path class="st51" d="M622.9,396.4v26.3l60.1,0c7.2,0,13.1-5.9,13.1-13.1c0-3.6-1.5-6.9-3.8-9.3c-2.4-2.4-5.7-3.8-9.3-3.8
			L622.9,396.4z"/>
		<path class="st5" d="M622.9,400.9v16.8l56.6,0c4.7,0,8.4-3.8,8.4-8.4c0-2.3-0.9-4.4-2.5-6c-1.5-1.5-3.6-2.5-6-2.5L622.9,400.9z"/>
	</g>
	<g>
		<path class="st10" d="M636,422.8v26.3h91.7c7.2,0,13.1-5.9,13.1-13.1c0-2.2-0.6-4.3-1.5-6.2c-0.6-1.1-1.4-2.2-2.3-3.1
			c-2.4-2.4-5.7-3.8-9.3-3.8H636z"/>
		<path class="st52" d="M638.4,422.8v7h100.9c-0.6-1.1-1.4-2.2-2.3-3.1c-2.4-2.4-5.7-3.8-9.3-3.8H638.4z"/>
		<path class="st52" d="M638.4,449.1v-7l100.9,0c-0.6,1.1-1.4,2.2-2.3,3.1c-2.4,2.4-5.7,3.8-9.3,3.8L638.4,449.1z"/>
		<path class="st53" d="M612,422.8v26.3l55,0c7.2,0,13.1-5.9,13.1-13.1c0-3.6-1.5-6.9-3.8-9.3c-2.4-2.4-5.7-3.8-9.3-3.8L612,422.8z"
			/>
		<path class="st5" d="M612,427.3v16.8l51.5,0c4.7,0,8.4-3.8,8.4-8.4c0-2.3-0.9-4.4-2.5-6c-1.5-1.5-3.6-2.5-6-2.5L612,427.3z"/>
	</g>
</g>
<g>
	<g>
		<g>
			<path class="st17" d="M650.1,268.6L650.1,268.6c-4.4-4.7-4-11.9,0.8-16.1l0.5-0.5c4.9-4.2,12.3-3.9,16.7,0.8v0
				c4.4,4.7,4,11.9-0.8,16.1l-0.5,0.5C662,273.6,654.5,273.3,650.1,268.6z"/>
			<path class="st32" d="M659.4,291.3l-11.5,10l-32.8-34.9l11.5-10c8-7,19.5-7.9,28.4-3.1c2.2,1.2,4.3,2.8,6.2,4.7
				c4.5,4.8,6.6,11,6.3,17C667.1,281,664.4,286.9,659.4,291.3z"/>
			<path class="st9" d="M649,280.2l-11.5,10l-22.3-23.8l11.5-10c8-7,19.5-7.9,28.4-3.1c1.5,3.4,2.2,7,2,10.6
				C656.7,269.9,654,275.8,649,280.2z"/>
		</g>
		<path class="st6" d="M648.5,301.2c-3.5,3.1-13.8-2.1-23-11.6c-9.2-9.5-13.9-19.8-10.4-22.9c2.7-2.5,9.8,0.3,17.1,6.2
			c1.9,1.6,3.9,3.4,5.8,5.4c2.2,2.3,4.2,4.7,5.9,7C649.1,292.4,651.1,298.8,648.5,301.2z"/>
		<path class="st5" d="M644,285.3c-2.7,2.9-7.2,3.8-10.9,1.8c-4.2-2.3-5.7-7.4-3.3-11.5c0.6-1.1,1.5-2,2.5-2.7
			c1.9,1.6,3.9,3.4,5.8,5.4C640.3,280.6,642.3,283,644,285.3z"/>
	</g>
	<polyline class="st54" points="708.4,381.6 738.3,285 677.7,244.7 665,255.5 	"/>
	<g>
		<path class="st17" d="M684.4,245.2c0,4-3.3,7.2-7.4,7.2c-4.1,0-7.4-3.2-7.4-7.2c0-4,3.3-7.2,7.4-7.2
			C681,238.1,684.4,241.3,684.4,245.2z"/>
		<path class="st11" d="M680.7,245.2c0,2-1.7,3.6-3.7,3.6s-3.7-1.6-3.7-3.6c0-2,1.7-3.6,3.7-3.6S680.7,243.3,680.7,245.2z"/>
	</g>
	<path class="st11" d="M738.5,396.7h-77.1l0,0c0-8.5,6.9-15.3,15.3-15.3h46.4C731.6,381.4,738.5,388.2,738.5,396.7L738.5,396.7z"/>
	<rect x="677.3" y="377.6" class="st17" width="13.9" height="4.2"/>
	<g>
		<ellipse class="st17" cx="737.7" cy="286" rx="10.4" ry="10"/>
		<ellipse class="st11" cx="737.7" cy="286" rx="5.2" ry="5"/>
	</g>
</g>
<g>
	<g>
		<path class="st55" d="M804.6,402.4c-11.3,15.4-34,17.9-34,17.9s-4.3-22.4,7-37.8c11.3-15.4,34-17.9,34-17.9S815.9,387,804.6,402.4
			z"/>
		<path class="st56" d="M757.2,393.2c10.4,10.2,9.8,27.6,9.8,27.6s-17.4,0.8-27.7-9.4c-10.4-10.2-9.8-27.6-9.8-27.6
			S746.8,383,757.2,393.2z"/>
		<path class="st57" d="M782.8,385.5c2.1,19-12.9,36.2-12.9,36.2s-18.4-13.5-20.5-32.5c-2.1-19,12.9-36.2,12.9-36.2
			S780.7,366.5,782.8,385.5z"/>
	</g>
	<g>
		<polygon class="st58" points="781.4,474.1 742.1,474.1 729.2,416.7 794.3,416.7 		"/>
		<polygon class="st35" points="796.3,474.1 756.9,474.1 751.1,416.7 809.2,416.7 		"/>
	</g>
</g>
<g>
	
		<linearGradient id="SVGID_1_" gradientUnits="userSpaceOnUse" x1="59.4643" y1="360.9465" x2="59.873" y2="360.9465" gradientTransform="matrix(1.0003 -4.740000e-02 -1.560000e-02 -1.4032 579.0677 788.0862)">
		<stop  offset="0.1075" style="stop-color:#606061"/>
		<stop  offset="0.2299" style="stop-color:#3C3C3D"/>
		<stop  offset="0.3984" style="stop-color:#111111"/>
		<stop  offset="0.4839" style="stop-color:#000000"/>
		<stop  offset="0.6189" style="stop-color:#101010"/>
		<stop  offset="0.8089" style="stop-color:#2D2D2D"/>
		<stop  offset="0.865" style="stop-color:#333333"/>
		<stop  offset="0.9427" style="stop-color:#454545"/>
		<stop  offset="1" style="stop-color:#575757"/>
	</linearGradient>
	<path class="st59" d="M632.9,279.3l0-1h0c0,0,0.1,0,0.2,0c0.1,0,0.2,0,0.2,0.1h0l0,1L632.9,279.3z"/>
	<g>
		<g>
			
				<linearGradient id="SVGID_2_" gradientUnits="userSpaceOnUse" x1="131.5302" y1="277.9933" x2="136.1903" y2="271.0908" gradientTransform="matrix(0.9998 -1.920000e-02 1.920000e-02 0.9998 491.1972 14.4292)">
				<stop  offset="0" style="stop-color:#F0EB5E"/>
				<stop  offset="3.723688e-03" style="stop-color:#E8D857"/>
				<stop  offset="1.113809e-02" style="stop-color:#DBB94A"/>
				<stop  offset="1.953751e-02" style="stop-color:#D09D3F"/>
				<stop  offset="2.901902e-02" style="stop-color:#C78737"/>
				<stop  offset="4.009622e-02" style="stop-color:#C07630"/>
				<stop  offset="5.379975e-02" style="stop-color:#BC6B2B"/>
				<stop  offset="7.302056e-02" style="stop-color:#B96429"/>
				<stop  offset="0.1264" style="stop-color:#B86228"/>
				<stop  offset="0.2149" style="stop-color:#A05523"/>
				<stop  offset="0.4025" style="stop-color:#623415"/>
				<stop  offset="0.669" style="stop-color:#000000"/>
			</linearGradient>
			<path class="st60" d="M630.2,285.3c0,0-0.1-0.1-0.2-0.1l-0.6,0.1c-0.1,0-0.1,0-0.1,0.1l-0.7,1.5c0,0,0,0.1,0,0.2l1.2,1
				c0,0,0.1,0,0.2,0l1.3-0.9c0,0,0.1-0.1,0.1-0.2l0-0.5c0-0.1,0-0.2-0.1-0.2L630.2,285.3z"/>
		</g>
		<g class="st61">
			<path class="st62" d="M631.3,283c0,0-34.2,24.3-42.4,31.6c-21.1,18.7,29.3,40,32.4,30.7c6.4-18.8,11.4-61.4,11.4-61.4L631.3,283z
				"/>
			<path class="st63" d="M631.3,283c0,0-33.5,24.3-41.4,31.4c-20.3,18,28.1,38.5,31.2,29.5c6.3-18.2,11.6-60,11.6-60L631.3,283z"/>
			<path class="st64" d="M631.3,283c-0.1,0.1-32.7,24.3-40.4,31.1c-19.5,17.4,26.9,37.1,30,28.3c6.2-17.6,11.7-58.6,11.7-58.6
				L631.3,283z"/>
			<path class="st65" d="M631.4,283c-0.1,0.1-32,24.2-39.4,30.9c-18.7,16.8,25.7,35.7,28.8,27.1c6.1-16.9,11.9-57.2,11.9-57.2
				L631.4,283z"/>
			<path class="st66" d="M631.4,283.1c-0.2,0.1-31.3,24.2-38.4,30.7c-17.9,16.2,24.5,34.3,27.5,25.9c5.9-16.3,12.1-55.9,12.1-55.9
				L631.4,283.1z"/>
			<path class="st67" d="M631.4,283.1c-0.2,0.2-30.6,24.2-37.4,30.4c-17.1,15.6,23.3,32.9,26.3,24.8c5.8-15.7,12.3-54.5,12.3-54.5
				L631.4,283.1z"/>
			<path class="st68" d="M631.4,283.1c-0.2,0.2-29.9,24.1-36.4,30.2c-16.3,15,22.1,31.5,25.1,23.6c5.7-15.1,12.4-53.1,12.4-53.1
				L631.4,283.1z"/>
			<path class="st69" d="M631.5,283.1c-0.3,0.2-29.1,24.1-35.4,29.9c-15.5,14.3,20.9,30.1,23.9,22.4c5.6-14.5,12.6-51.7,12.6-51.7
				L631.5,283.1z"/>
			<path class="st70" d="M631.5,283.2c-0.3,0.3-28.4,24.1-34.4,29.7c-14.7,13.7,19.7,28.7,22.6,21.2c5.5-13.9,12.8-50.3,12.8-50.3
				L631.5,283.2z"/>
			<path class="st71" d="M631.5,283.2c-0.3,0.3-27.7,24.1-33.4,29.5c-13.9,13.1,18.5,27.3,21.4,20c5.3-13.3,13-48.9,13-48.9
				L631.5,283.2z"/>
			<path class="st72" d="M631.5,283.2c-0.4,0.4-27,24-32.4,29.2c-13.1,12.5,17.3,25.9,20.2,18.8c5.2-12.7,13.1-47.5,13.1-47.5
				L631.5,283.2z"/>
			<path class="st73" d="M631.5,283.2c-0.4,0.4-26.2,24-31.4,29c-12.3,11.9,16.1,24.4,19,17.7c5.1-12.1,13.3-46.1,13.3-46.1
				L631.5,283.2z"/>
			<path class="st74" d="M631.6,283.3c-0.5,0.4-25.5,24-30.4,28.7c-11.5,11.2,14.9,23,17.7,16.5c5-11.5,13.5-44.7,13.5-44.7
				L631.6,283.3z"/>
			<path class="st75" d="M631.6,283.3c-0.5,0.5-24.8,23.9-29.4,28.5c-10.7,10.6,13.7,21.6,16.5,15.3c4.8-10.9,13.7-43.3,13.7-43.3
				L631.6,283.3z"/>
			<path class="st76" d="M631.6,283.3c-0.5,0.5-24.1,23.9-28.4,28.3c-9.9,10,12.5,20.2,15.3,14.1c4.7-10.3,13.8-41.9,13.8-41.9
				L631.6,283.3z"/>
			<path class="st77" d="M631.6,283.3c-0.6,0.5-23.3,23.9-27.4,28c-9.1,9.4,11.3,18.8,14.1,12.9c4.6-9.7,14-40.5,14-40.5
				L631.6,283.3z"/>
			<path class="st78" d="M631.7,283.4c-0.6,0.6-22.6,23.8-26.4,27.8c-8.3,8.7,10.1,17.4,12.8,11.7c4.4-9.1,14.2-39.1,14.2-39.1
				L631.7,283.4z"/>
			<path class="st79" d="M631.7,283.4c-0.7,0.6-21.9,23.8-25.4,27.5c-7.5,8.1,8.9,16,11.6,10.6c4.3-8.5,14.3-37.7,14.3-37.7
				L631.7,283.4z"/>
			<path class="st80" d="M631.7,283.4c-0.7,0.6-21.2,23.8-24.4,27.3c-6.7,7.4,7.7,14.6,10.4,9.4c4.1-7.9,14.5-36.3,14.5-36.3
				L631.7,283.4z"/>
			<path class="st81" d="M631.7,283.4c-0.7,0.7-20.5,23.7-23.4,27.1c-5.9,6.8,6.5,13.2,9.2,8.2c4-7.3,14.7-34.9,14.7-34.9
				L631.7,283.4z"/>
			<path class="st82" d="M631.8,283.5c-0.8,0.7-19.7,23.7-22.4,26.8c-5.1,6.2,5.2,11.7,7.9,7c3.8-6.7,14.9-33.5,14.9-33.5
				L631.8,283.5z"/>
			<path class="st83" d="M631.8,283.5c-0.8,0.7-19,23.6-21.3,26.6c-4.4,5.5,4,10.3,6.7,5.8c3.6-6.1,15-32.1,15-32.1L631.8,283.5z"/>
			<path class="st84" d="M631.8,283.5c-0.8,0.8-18.3,23.6-20.3,26.4c-3.6,4.8,2.8,8.9,5.5,4.7c3.5-5.5,15.2-30.7,15.2-30.7
				L631.8,283.5z"/>
			<path class="st85" d="M631.8,283.5c-0.9,0.8-17.6,23.6-19.3,26.1c-2.8,4.1,1.6,7.5,4.2,3.5c3.3-4.9,15.4-29.3,15.4-29.3
				L631.8,283.5z"/>
			<path class="st86" d="M631.8,283.6c-0.9,0.8-16.9,23.5-18.3,25.9c-2.1,3.5,0.3,6.1,3,2.3c3.1-4.4,15.6-28,15.6-28L631.8,283.6z"
				/>
			<path class="st87" d="M631.9,283.6c-1,0.9-16.2,23.4-17.3,25.6c-1.4,2.8-0.9,4.6,1.8,1.1c2.9-3.8,15.7-26.6,15.7-26.6
				L631.9,283.6z"/>
			<path class="st88" d="M631.9,283.6c-1,0.9-15.6,23.3-16.3,25.4c-0.7,2.1-2.2,3.2,0.6-0.1c2.7-3.2,15.9-25.2,15.9-25.2
				L631.9,283.6z"/>
		</g>
	</g>
</g>
</svg>
